<?xml version="1.0" encoding="UTF-8" standalone="no"?>
<!DOCTYPE svg PUBLIC "-//W3C//DTD SVG 1.1//EN" "http://www.w3.org/Graphics/SVG/1.1/DTD/svg11.dtd">
<!-- Created with Vectornator (http://vectornator.io/) -->
<svg height="100%" stroke-miterlimit="10" style="fill-rule:nonzero;clip-rule:evenodd;stroke-linecap:round;stroke-linejoin:round;" version="1.1" viewBox="0 0 415 75" width="100%" xml:space="preserve" xmlns="http://www.w3.org/2000/svg" xmlns:vectornator="http://vectornator.io" xmlns:xlink="http://www.w3.org/1999/xlink">
<defs/>
<clipPath id="ArtboardFrame">
<rect height="75" width="415" x="0" y="0"/>
</clipPath>
<g clip-path="url(#ArtboardFrame)" id="Layer-1" vectornator:layerName="Layer 1">
<g fill="#293241" opacity="1" stroke="none">
<path d="M27.6312 64.3632C21.0479 64.3632 16.0166 62.5715 12.5375 58.9882C7.87081 54.5923 5.53748 48.259 5.53748 39.9882C5.53748 31.5507 7.87081 25.2173 12.5375 20.9882C16.0166 17.4048 21.0479 15.6132 27.6312 15.6132C34.2146 15.6132 39.2458 17.4048 42.725 20.9882C47.3708 25.2173 49.6937 31.5507 49.6937 39.9882C49.6937 48.259 47.3708 54.5923 42.725 58.9882C39.2458 62.5715 34.2146 64.3632 27.6312 64.3632ZM36.725 51.9882C38.9541 49.1757 40.0687 45.1757 40.0687 39.9882C40.0687 34.8215 38.9489 30.8267 36.7094 28.0038C34.4698 25.1809 31.4437 23.7694 27.6312 23.7694C23.8187 23.7694 20.7771 25.1757 18.5062 27.9882C16.2354 30.8007 15.1 34.8007 15.1 39.9882C15.1 45.1757 16.2354 49.1757 18.5062 51.9882C20.7771 54.8007 23.8187 56.2069 27.6312 56.2069C31.4437 56.2069 34.475 54.8007 36.725 51.9882Z"/>
<path d="M79.7875 30.5819C82.4541 32.2902 83.9854 35.2277 84.3812 39.3944L75.475 39.3944C75.35 38.2486 75.0271 37.3423 74.5062 36.6757C73.5271 35.4673 71.8604 34.8632 69.5062 34.8632C67.5687 34.8632 66.1885 35.1652 65.3656 35.7694C64.5427 36.3736 64.1312 37.0819 64.1312 37.8944C64.1312 38.9152 64.5687 39.6548 65.4437 40.1132C66.3187 40.5923 69.4125 41.4152 74.725 42.5819C78.2666 43.4152 80.9229 44.6757 82.6937 46.3632C84.4437 48.0715 85.3187 50.2069 85.3187 52.7694C85.3187 56.1444 84.0635 58.8996 81.5531 61.035C79.0427 63.1705 75.1625 64.2382 69.9125 64.2382C64.5583 64.2382 60.6052 63.108 58.0531 60.8475C55.501 58.5871 54.225 55.7069 54.225 52.2069L63.2562 52.2069C63.4437 53.7902 63.85 54.9152 64.475 55.5819C65.5791 56.7694 67.6208 57.3632 70.6 57.3632C72.35 57.3632 73.7406 57.1027 74.7719 56.5819C75.8031 56.0611 76.3187 55.2798 76.3187 54.2382C76.3187 53.2382 75.9021 52.4777 75.0687 51.9569C74.2354 51.4361 71.1416 50.5402 65.7875 49.2694C61.9333 48.3111 59.2146 47.1132 57.6312 45.6757C56.0479 44.259 55.2562 42.2173 55.2562 39.5507C55.2562 36.4048 56.4906 33.7017 58.9594 31.4413C61.4281 29.1809 64.9021 28.0507 69.3812 28.0507C73.6312 28.0507 77.1 28.8944 79.7875 30.5819Z"/>
<path d="M123.162 63.0819L112.412 63.0819L104.256 48.5194L100.569 52.3632L100.569 63.0819L91.8187 63.0819L91.8187 17.1757L100.569 17.1757L100.569 41.9882L111.662 29.1757L122.694 29.1757L110.787 42.2069L123.162 63.0819Z"/>
<path d="M128.787 32.7069C131.142 29.7069 135.183 28.2069 140.912 28.2069C144.642 28.2069 147.954 28.9465 150.85 30.4257C153.746 31.9048 155.194 34.6965 155.194 38.8007L155.194 54.4257C155.194 55.509 155.215 56.8215 155.256 58.3632C155.319 59.5298 155.496 60.3215 155.787 60.7382C156.079 61.1548 156.517 61.4986 157.1 61.7694L157.1 63.0819L147.412 63.0819C147.142 62.3944 146.954 61.7486 146.85 61.1444C146.746 60.5402 146.662 59.8527 146.6 59.0819C145.371 60.4152 143.954 61.5507 142.35 62.4882C140.433 63.5923 138.267 64.1444 135.85 64.1444C132.767 64.1444 130.22 63.2642 128.209 61.5038C126.199 59.7434 125.194 57.2486 125.194 54.0194C125.194 49.8319 126.808 46.8007 130.037 44.9257C131.808 43.9048 134.412 43.1757 137.85 42.7382L140.881 42.3632C142.527 42.1548 143.704 41.8944 144.412 41.5819C145.683 41.0402 146.319 40.1965 146.319 39.0507C146.319 37.6548 145.834 36.6913 144.866 36.16C143.897 35.6288 142.475 35.3632 140.6 35.3632C138.496 35.3632 137.006 35.884 136.131 36.9257C135.506 37.6965 135.09 38.7382 134.881 40.0507L126.287 40.0507C126.475 37.0715 127.308 34.6236 128.787 32.7069ZM135.412 56.6444C136.246 57.3319 137.267 57.6757 138.475 57.6757C140.392 57.6757 142.157 57.1132 143.772 55.9882C145.386 54.8632 146.225 52.8111 146.287 49.8319L146.287 46.5194C145.725 46.8736 145.157 47.16 144.584 47.3788C144.011 47.5975 143.225 47.8007 142.225 47.9882L140.225 48.3632C138.35 48.6965 137.006 49.1027 136.194 49.5819C134.819 50.3944 134.131 51.6548 134.131 53.3632C134.131 54.884 134.558 55.9777 135.412 56.6444Z"/>
<path d="M180.225 37.2382C176.642 37.2382 174.235 38.4048 173.006 40.7382C172.319 42.0507 171.975 44.0715 171.975 46.8007L171.975 63.0819L163.006 63.0819L163.006 29.0194L171.506 29.0194L171.506 34.9569C172.881 32.6861 174.079 31.134 175.1 30.3007C176.767 28.9048 178.933 28.2069 181.6 28.2069C181.767 28.2069 181.907 28.2121 182.022 28.2225C182.136 28.233 182.392 28.2486 182.787 28.2694L182.787 37.3944C182.225 37.3319 181.725 37.2902 181.287 37.2694C180.85 37.2486 180.496 37.2382 180.225 37.2382Z"/>
<path d="M217.756 46.5194L207.975 46.5194L207.975 63.0819L198.412 63.0819L198.412 17.0194L218.475 17.0194C223.1 17.0194 226.787 18.2069 229.537 20.5819C232.287 22.9569 233.662 26.634 233.662 31.6132C233.662 37.0507 232.287 40.8944 229.537 43.1444C226.787 45.3944 222.86 46.5194 217.756 46.5194ZM222.256 36.9257C223.506 35.8215 224.131 34.0715 224.131 31.6757C224.131 29.2798 223.501 27.5715 222.241 26.5507C220.98 25.5298 219.215 25.0194 216.944 25.0194L207.975 25.0194L207.975 38.5819L216.944 38.5819C219.215 38.5819 220.985 38.0298 222.256 36.9257Z"/>
<path d="M241.444 32.7069C243.798 29.7069 247.84 28.2069 253.569 28.2069C257.298 28.2069 260.61 28.9465 263.506 30.4257C266.402 31.9048 267.85 34.6965 267.85 38.8007L267.85 54.4257C267.85 55.509 267.871 56.8215 267.912 58.3632C267.975 59.5298 268.152 60.3215 268.444 60.7382C268.735 61.1548 269.173 61.4986 269.756 61.7694L269.756 63.0819L260.069 63.0819C259.798 62.3944 259.61 61.7486 259.506 61.1444C259.402 60.5402 259.319 59.8527 259.256 59.0819C258.027 60.4152 256.61 61.5507 255.006 62.4882C253.09 63.5923 250.923 64.1444 248.506 64.1444C245.423 64.1444 242.876 63.2642 240.866 61.5038C238.855 59.7434 237.85 57.2486 237.85 54.0194C237.85 49.8319 239.465 46.8007 242.694 44.9257C244.465 43.9048 247.069 43.1757 250.506 42.7382L253.537 42.3632C255.183 42.1548 256.36 41.8944 257.069 41.5819C258.34 41.0402 258.975 40.1965 258.975 39.0507C258.975 37.6548 258.491 36.6913 257.522 36.16C256.553 35.6288 255.131 35.3632 253.256 35.3632C251.152 35.3632 249.662 35.884 248.787 36.9257C248.162 37.6965 247.746 38.7382 247.537 40.0507L238.944 40.0507C239.131 37.0715 239.965 34.6236 241.444 32.7069ZM248.069 56.6444C248.902 57.3319 249.923 57.6757 251.131 57.6757C253.048 57.6757 254.814 57.1132 256.428 55.9882C258.043 54.8632 258.881 52.8111 258.944 49.8319L258.944 46.5194C258.381 46.8736 257.814 47.16 257.241 47.3788C256.668 47.5975 255.881 47.8007 254.881 47.9882L252.881 48.3632C251.006 48.6965 249.662 49.1027 248.85 49.5819C247.475 50.3944 246.787 51.6548 246.787 53.3632C246.787 54.884 247.215 55.9777 248.069 56.6444Z"/>
<path d="M291.787 35.6132C288.767 35.6132 286.694 36.8944 285.569 39.4569C284.985 40.8111 284.694 42.5402 284.694 44.6444L284.694 63.0819L275.819 63.0819L275.819 29.0819L284.412 29.0819L284.412 34.0507C285.558 32.3007 286.642 31.0402 287.662 30.2694C289.496 28.8944 291.819 28.2069 294.631 28.2069C298.152 28.2069 301.032 29.1288 303.272 30.9725C305.511 32.8163 306.631 35.8736 306.631 40.1444L306.631 63.0819L297.506 63.0819L297.506 42.3632C297.506 40.5715 297.267 39.1965 296.787 38.2382C295.912 36.4882 294.246 35.6132 291.787 35.6132Z"/>
<path d="M330.444 56.7382L330.444 63.3944L326.225 63.5507C322.017 63.6965 319.142 62.9673 317.6 61.3632C316.6 60.3423 316.1 58.7694 316.1 56.6444L316.1 35.6757L311.35 35.6757L311.35 29.3319L316.1 29.3319L316.1 19.8319L324.912 19.8319L324.912 29.3319L330.444 29.3319L330.444 35.6757L324.912 35.6757L324.912 53.6757C324.912 55.0715 325.09 55.9413 325.444 56.285C325.798 56.6288 326.881 56.8007 328.694 56.8007C328.965 56.8007 329.251 56.7955 329.553 56.785C329.855 56.7746 330.152 56.759 330.444 56.7382Z"/>
<path d="M364.569 33.3319C367.444 36.9361 368.881 41.1965 368.881 46.1132C368.881 51.1132 367.444 55.3892 364.569 58.9413C361.694 62.4934 357.329 64.2694 351.475 64.2694C345.621 64.2694 341.256 62.4934 338.381 58.9413C335.506 55.3892 334.069 51.1132 334.069 46.1132C334.069 41.1965 335.506 36.9361 338.381 33.3319C341.256 29.7277 345.621 27.9257 351.475 27.9257C357.329 27.9257 361.694 29.7277 364.569 33.3319ZM351.444 35.4569C348.84 35.4569 346.834 36.3788 345.428 38.2225C344.022 40.0663 343.319 42.6965 343.319 46.1132C343.319 49.5298 344.022 52.1652 345.428 54.0194C346.834 55.8736 348.84 56.8007 351.444 56.8007C354.048 56.8007 356.048 55.8736 357.444 54.0194C358.84 52.1652 359.537 49.5298 359.537 46.1132C359.537 42.6965 358.84 40.0663 357.444 38.2225C356.048 36.3788 354.048 35.4569 351.444 35.4569Z"/>
<path d="M391.287 35.6132C388.267 35.6132 386.194 36.8944 385.069 39.4569C384.485 40.8111 384.194 42.5402 384.194 44.6444L384.194 63.0819L375.319 63.0819L375.319 29.0819L383.912 29.0819L383.912 34.0507C385.058 32.3007 386.142 31.0402 387.162 30.2694C388.996 28.8944 391.319 28.2069 394.131 28.2069C397.652 28.2069 400.532 29.1288 402.772 30.9725C405.011 32.8163 406.131 35.8736 406.131 40.1444L406.131 63.0819L397.006 63.0819L397.006 42.3632C397.006 40.5715 396.767 39.1965 396.287 38.2382C395.412 36.4882 393.746 35.6132 391.287 35.6132Z"/>
</g>
<g fill="#1f449b" opacity="1" stroke="none">
<path d="M238.909 157.678L238.909 165.834L225.127 165.834L225.127 203.74L215.44 203.74L215.44 165.834L201.596 165.834L201.596 157.678L238.909 157.678Z" fill="#1f449b" fill-opacity="0"/>
<path d="M268.252 193.74C268.023 195.761 266.971 197.813 265.096 199.896C262.18 203.209 258.096 204.865 252.846 204.865C248.513 204.865 244.69 203.469 241.377 200.678C238.065 197.886 236.409 193.344 236.409 187.053C236.409 181.157 237.903 176.636 240.893 173.49C243.883 170.344 247.763 168.771 252.534 168.771C255.367 168.771 257.919 169.303 260.19 170.365C262.461 171.428 264.336 173.105 265.815 175.396C267.148 177.417 268.013 179.761 268.409 182.428C268.638 183.99 268.732 186.24 268.69 189.178L245.377 189.178C245.502 192.594 246.575 194.99 248.596 196.365C249.825 197.219 251.305 197.646 253.034 197.646C254.867 197.646 256.357 197.125 257.502 196.084C258.127 195.521 258.68 194.74 259.159 193.74L268.252 193.74ZM259.44 183.303C259.294 180.948 258.581 179.162 257.299 177.943C256.018 176.724 254.43 176.115 252.534 176.115C250.471 176.115 248.872 176.761 247.737 178.053C246.601 179.344 245.888 181.094 245.596 183.303L259.44 183.303Z" fill="#1f449b" fill-opacity="0"/>
<path d="M305.034 203.74L293.94 203.74L288.065 193.521L282.159 203.74L271.346 203.74L282.971 186.49L271.846 169.74L282.752 169.74L288.44 179.615L294.002 169.74L304.596 169.74L293.409 186.334L305.034 203.74Z" fill="#1f449b" fill-opacity="0"/>
<path d="M325.877 197.396L325.877 204.053L321.659 204.209C317.45 204.355 314.575 203.625 313.034 202.021C312.034 201 311.534 199.428 311.534 197.303L311.534 176.334L306.784 176.334L306.784 169.99L311.534 169.99L311.534 160.49L320.346 160.49L320.346 169.99L325.877 169.99L325.877 176.334L320.346 176.334L320.346 194.334C320.346 195.73 320.523 196.599 320.877 196.943C321.232 197.287 322.315 197.459 324.127 197.459C324.398 197.459 324.685 197.454 324.987 197.443C325.289 197.433 325.586 197.417 325.877 197.396Z" fill="#1f449b" fill-opacity="0"/>
</g>
</g>
</svg>
